<svg width="76" height="76" viewBox="0 0 76 76" fill="none" xmlns="http://www.w3.org/2000/svg">
<path d="M38.0002 2.78777C18.553 2.78777 2.78784 18.553 2.78784 38.0002C2.78784 57.4474 18.553 73.2126 38.0002 73.2126C57.4475 73.2126 73.2126 57.4474 73.2126 38.0002C73.2126 18.553 57.4475 2.78777 38.0002 2.78777Z" stroke="#56C662" stroke-width="2.64174" stroke-linecap="round"/>
<path d="M37.9319 9.44059C22.1901 9.44059 9.42871 22.202 9.42871 37.9438C9.42871 53.6856 22.1901 66.447 37.9319 66.447C53.6738 66.447 66.4351 53.6856 66.4351 37.9438C66.4351 22.202 53.6738 9.44059 37.9319 9.44059Z" fill="#40B816"/>
<path d="M50.4744 29.1886L31.862 46.811L25.5259 40.4748" stroke="white" stroke-width="6" stroke-linecap="round"/>
</svg>
